<mxfile host="app.diagrams.net" modified="2023-06-05T02:39:08.494Z" agent="Mozilla/5.0 (Windows NT 10.0; Win64; x64) AppleWebKit/537.36 (KHTML, like Gecko) Chrome/114.0.0.0 Safari/537.36" etag="n9CMURAaa644XYT_WpVJ" version="21.3.7" type="device">
  <diagram name="페이지-1" id="BAQMwu87DOG4g4MoZoOb">
    <mxGraphModel dx="1434" dy="764" grid="1" gridSize="10" guides="1" tooltips="1" connect="1" arrows="1" fold="1" page="1" pageScale="1" pageWidth="2339" pageHeight="3300" math="0" shadow="0">
      <root>
        <mxCell id="0" />
        <mxCell id="1" parent="0" />
        <mxCell id="-hERmXz7YFjnkPKjClpD-1" value="메뉴" style="swimlane;fontStyle=0;childLayout=stackLayout;horizontal=1;startSize=30;horizontalStack=0;resizeParent=1;resizeParentMax=0;resizeLast=0;collapsible=1;marginBottom=0;whiteSpace=wrap;html=1;" parent="1" vertex="1">
          <mxGeometry x="370" y="90" width="140" height="130" as="geometry" />
        </mxCell>
        <mxCell id="-hERmXz7YFjnkPKjClpD-3" value="상품명(PK)" style="text;strokeColor=none;fillColor=none;align=left;verticalAlign=middle;spacingLeft=4;spacingRight=4;overflow=hidden;points=[[0,0.5],[1,0.5]];portConstraint=eastwest;rotatable=0;whiteSpace=wrap;html=1;" parent="-hERmXz7YFjnkPKjClpD-1" vertex="1">
          <mxGeometry y="30" width="140" height="30" as="geometry" />
        </mxCell>
        <mxCell id="-hERmXz7YFjnkPKjClpD-4" value="가격" style="text;strokeColor=none;fillColor=none;align=left;verticalAlign=middle;spacingLeft=4;spacingRight=4;overflow=hidden;points=[[0,0.5],[1,0.5]];portConstraint=eastwest;rotatable=0;whiteSpace=wrap;html=1;" parent="-hERmXz7YFjnkPKjClpD-1" vertex="1">
          <mxGeometry y="60" width="140" height="30" as="geometry" />
        </mxCell>
        <mxCell id="-hERmXz7YFjnkPKjClpD-5" value="분류" style="text;strokeColor=none;fillColor=none;align=left;verticalAlign=middle;spacingLeft=4;spacingRight=4;overflow=hidden;points=[[0,0.5],[1,0.5]];portConstraint=eastwest;rotatable=0;whiteSpace=wrap;html=1;" parent="-hERmXz7YFjnkPKjClpD-1" vertex="1">
          <mxGeometry y="90" width="140" height="40" as="geometry" />
        </mxCell>
        <mxCell id="-hERmXz7YFjnkPKjClpD-6" value="판매 목록" style="swimlane;fontStyle=0;childLayout=stackLayout;horizontal=1;startSize=40;horizontalStack=0;resizeParent=1;resizeParentMax=0;resizeLast=0;collapsible=1;marginBottom=0;whiteSpace=wrap;html=1;" parent="1" vertex="1">
          <mxGeometry x="370" y="280" width="140" height="160" as="geometry" />
        </mxCell>
        <mxCell id="-hERmXz7YFjnkPKjClpD-7" value="상품명(FK)" style="text;strokeColor=none;fillColor=none;align=left;verticalAlign=middle;spacingLeft=4;spacingRight=4;overflow=hidden;points=[[0,0.5],[1,0.5]];portConstraint=eastwest;rotatable=0;whiteSpace=wrap;html=1;" parent="-hERmXz7YFjnkPKjClpD-6" vertex="1">
          <mxGeometry y="40" width="140" height="30" as="geometry" />
        </mxCell>
        <mxCell id="-hERmXz7YFjnkPKjClpD-8" value="수량" style="text;strokeColor=none;fillColor=none;align=left;verticalAlign=middle;spacingLeft=4;spacingRight=4;overflow=hidden;points=[[0,0.5],[1,0.5]];portConstraint=eastwest;rotatable=0;whiteSpace=wrap;html=1;" parent="-hERmXz7YFjnkPKjClpD-6" vertex="1">
          <mxGeometry y="70" width="140" height="30" as="geometry" />
        </mxCell>
        <mxCell id="-hERmXz7YFjnkPKjClpD-9" value="결제금액" style="text;strokeColor=none;fillColor=none;align=left;verticalAlign=middle;spacingLeft=4;spacingRight=4;overflow=hidden;points=[[0,0.5],[1,0.5]];portConstraint=eastwest;rotatable=0;whiteSpace=wrap;html=1;" parent="-hERmXz7YFjnkPKjClpD-6" vertex="1">
          <mxGeometry y="100" width="140" height="30" as="geometry" />
        </mxCell>
        <mxCell id="-hERmXz7YFjnkPKjClpD-15" value="날짜(시간포함)" style="text;strokeColor=none;fillColor=none;align=left;verticalAlign=middle;spacingLeft=4;spacingRight=4;overflow=hidden;points=[[0,0.5],[1,0.5]];portConstraint=eastwest;rotatable=0;whiteSpace=wrap;html=1;" parent="-hERmXz7YFjnkPKjClpD-6" vertex="1">
          <mxGeometry y="130" width="140" height="30" as="geometry" />
        </mxCell>
        <mxCell id="-hERmXz7YFjnkPKjClpD-12" style="edgeStyle=orthogonalEdgeStyle;rounded=0;orthogonalLoop=1;jettySize=auto;html=1;exitX=0;exitY=0.5;exitDx=0;exitDy=0;entryX=0;entryY=0.5;entryDx=0;entryDy=0;endArrow=ERzeroToMany;endFill=0;startArrow=ERone;startFill=0;" parent="1" source="-hERmXz7YFjnkPKjClpD-3" target="-hERmXz7YFjnkPKjClpD-7" edge="1">
          <mxGeometry relative="1" as="geometry" />
        </mxCell>
        <mxCell id="-hERmXz7YFjnkPKjClpD-16" value="정산" style="swimlane;fontStyle=0;childLayout=stackLayout;horizontal=1;startSize=40;horizontalStack=0;resizeParent=1;resizeParentMax=0;resizeLast=0;collapsible=1;marginBottom=0;whiteSpace=wrap;html=1;" parent="1" vertex="1">
          <mxGeometry x="110" y="310" width="140" height="130" as="geometry" />
        </mxCell>
        <mxCell id="-hERmXz7YFjnkPKjClpD-17" value="상품명" style="text;strokeColor=none;fillColor=none;align=left;verticalAlign=middle;spacingLeft=4;spacingRight=4;overflow=hidden;points=[[0,0.5],[1,0.5]];portConstraint=eastwest;rotatable=0;whiteSpace=wrap;html=1;" parent="-hERmXz7YFjnkPKjClpD-16" vertex="1">
          <mxGeometry y="40" width="140" height="30" as="geometry" />
        </mxCell>
        <mxCell id="-hERmXz7YFjnkPKjClpD-18" value="수량" style="text;strokeColor=none;fillColor=none;align=left;verticalAlign=middle;spacingLeft=4;spacingRight=4;overflow=hidden;points=[[0,0.5],[1,0.5]];portConstraint=eastwest;rotatable=0;whiteSpace=wrap;html=1;" parent="-hERmXz7YFjnkPKjClpD-16" vertex="1">
          <mxGeometry y="70" width="140" height="30" as="geometry" />
        </mxCell>
        <mxCell id="-hERmXz7YFjnkPKjClpD-19" value="판매금액" style="text;strokeColor=none;fillColor=none;align=left;verticalAlign=middle;spacingLeft=4;spacingRight=4;overflow=hidden;points=[[0,0.5],[1,0.5]];portConstraint=eastwest;rotatable=0;whiteSpace=wrap;html=1;" parent="-hERmXz7YFjnkPKjClpD-16" vertex="1">
          <mxGeometry y="100" width="140" height="30" as="geometry" />
        </mxCell>
        <mxCell id="-hERmXz7YFjnkPKjClpD-23" value="" style="shape=table;startSize=0;container=1;collapsible=0;childLayout=tableLayout;" parent="1" vertex="1">
          <mxGeometry x="110" y="480" width="140" height="40" as="geometry" />
        </mxCell>
        <mxCell id="-hERmXz7YFjnkPKjClpD-24" value="" style="shape=tableRow;horizontal=0;startSize=0;swimlaneHead=0;swimlaneBody=0;strokeColor=inherit;top=0;left=0;bottom=0;right=0;collapsible=0;dropTarget=0;fillColor=none;points=[[0,0.5],[1,0.5]];portConstraint=eastwest;" parent="-hERmXz7YFjnkPKjClpD-23" vertex="1">
          <mxGeometry width="140" height="40" as="geometry" />
        </mxCell>
        <mxCell id="-hERmXz7YFjnkPKjClpD-25" value="하루 총 판매금액" style="shape=partialRectangle;html=1;whiteSpace=wrap;connectable=0;strokeColor=inherit;overflow=hidden;fillColor=none;top=0;left=0;bottom=0;right=0;pointerEvents=1;" parent="-hERmXz7YFjnkPKjClpD-24" vertex="1">
          <mxGeometry width="140" height="40" as="geometry">
            <mxRectangle width="140" height="40" as="alternateBounds" />
          </mxGeometry>
        </mxCell>
        <mxCell id="-hERmXz7YFjnkPKjClpD-76" style="edgeStyle=orthogonalEdgeStyle;rounded=0;orthogonalLoop=1;jettySize=auto;html=1;entryX=1;entryY=0.5;entryDx=0;entryDy=0;" parent="1" source="-hERmXz7YFjnkPKjClpD-27" target="-hERmXz7YFjnkPKjClpD-70" edge="1">
          <mxGeometry relative="1" as="geometry">
            <Array as="points">
              <mxPoint x="1060" y="765" />
              <mxPoint x="1060" y="615" />
            </Array>
          </mxGeometry>
        </mxCell>
        <mxCell id="-hERmXz7YFjnkPKjClpD-27" value="고정비" style="swimlane;fontStyle=0;childLayout=stackLayout;horizontal=1;startSize=40;horizontalStack=0;resizeParent=1;resizeParentMax=0;resizeLast=0;collapsible=1;marginBottom=0;whiteSpace=wrap;html=1;" parent="1" vertex="1">
          <mxGeometry x="860" y="700" width="140" height="130" as="geometry" />
        </mxCell>
        <mxCell id="-hERmXz7YFjnkPKjClpD-28" value="지출명" style="text;strokeColor=none;fillColor=none;align=left;verticalAlign=middle;spacingLeft=4;spacingRight=4;overflow=hidden;points=[[0,0.5],[1,0.5]];portConstraint=eastwest;rotatable=0;whiteSpace=wrap;html=1;" parent="-hERmXz7YFjnkPKjClpD-27" vertex="1">
          <mxGeometry y="40" width="140" height="30" as="geometry" />
        </mxCell>
        <mxCell id="-hERmXz7YFjnkPKjClpD-29" value="지출 금액" style="text;strokeColor=none;fillColor=none;align=left;verticalAlign=middle;spacingLeft=4;spacingRight=4;overflow=hidden;points=[[0,0.5],[1,0.5]];portConstraint=eastwest;rotatable=0;whiteSpace=wrap;html=1;" parent="-hERmXz7YFjnkPKjClpD-27" vertex="1">
          <mxGeometry y="70" width="140" height="30" as="geometry" />
        </mxCell>
        <mxCell id="-hERmXz7YFjnkPKjClpD-31" value="지출 날짜" style="text;strokeColor=none;fillColor=none;align=left;verticalAlign=middle;spacingLeft=4;spacingRight=4;overflow=hidden;points=[[0,0.5],[1,0.5]];portConstraint=eastwest;rotatable=0;whiteSpace=wrap;html=1;" parent="-hERmXz7YFjnkPKjClpD-27" vertex="1">
          <mxGeometry y="100" width="140" height="30" as="geometry" />
        </mxCell>
        <mxCell id="-hERmXz7YFjnkPKjClpD-32" value="" style="shape=table;startSize=0;container=1;collapsible=0;childLayout=tableLayout;" parent="1" vertex="1">
          <mxGeometry x="860" y="850" width="140" height="40" as="geometry" />
        </mxCell>
        <mxCell id="-hERmXz7YFjnkPKjClpD-33" value="" style="shape=tableRow;horizontal=0;startSize=0;swimlaneHead=0;swimlaneBody=0;strokeColor=inherit;top=0;left=0;bottom=0;right=0;collapsible=0;dropTarget=0;fillColor=none;points=[[0,0.5],[1,0.5]];portConstraint=eastwest;" parent="-hERmXz7YFjnkPKjClpD-32" vertex="1">
          <mxGeometry width="140" height="40" as="geometry" />
        </mxCell>
        <mxCell id="-hERmXz7YFjnkPKjClpD-34" value="총 지출금액" style="shape=partialRectangle;html=1;whiteSpace=wrap;connectable=0;strokeColor=inherit;overflow=hidden;fillColor=none;top=0;left=0;bottom=0;right=0;pointerEvents=1;" parent="-hERmXz7YFjnkPKjClpD-33" vertex="1">
          <mxGeometry width="140" height="40" as="geometry">
            <mxRectangle width="140" height="40" as="alternateBounds" />
          </mxGeometry>
        </mxCell>
        <mxCell id="-hERmXz7YFjnkPKjClpD-36" value="판매 순위" style="swimlane;fontStyle=0;childLayout=stackLayout;horizontal=1;startSize=40;horizontalStack=0;resizeParent=1;resizeParentMax=0;resizeLast=0;collapsible=1;marginBottom=0;whiteSpace=wrap;html=1;" parent="1" vertex="1">
          <mxGeometry x="620" y="280" width="140" height="160" as="geometry" />
        </mxCell>
        <mxCell id="-hERmXz7YFjnkPKjClpD-37" value="상품명" style="text;strokeColor=none;fillColor=none;align=left;verticalAlign=middle;spacingLeft=4;spacingRight=4;overflow=hidden;points=[[0,0.5],[1,0.5]];portConstraint=eastwest;rotatable=0;whiteSpace=wrap;html=1;" parent="-hERmXz7YFjnkPKjClpD-36" vertex="1">
          <mxGeometry y="40" width="140" height="30" as="geometry" />
        </mxCell>
        <mxCell id="-hERmXz7YFjnkPKjClpD-38" value="수량" style="text;strokeColor=none;fillColor=none;align=left;verticalAlign=middle;spacingLeft=4;spacingRight=4;overflow=hidden;points=[[0,0.5],[1,0.5]];portConstraint=eastwest;rotatable=0;whiteSpace=wrap;html=1;" parent="-hERmXz7YFjnkPKjClpD-36" vertex="1">
          <mxGeometry y="70" width="140" height="30" as="geometry" />
        </mxCell>
        <mxCell id="-hERmXz7YFjnkPKjClpD-39" value="판매금액" style="text;strokeColor=none;fillColor=none;align=left;verticalAlign=middle;spacingLeft=4;spacingRight=4;overflow=hidden;points=[[0,0.5],[1,0.5]];portConstraint=eastwest;rotatable=0;whiteSpace=wrap;html=1;" parent="-hERmXz7YFjnkPKjClpD-36" vertex="1">
          <mxGeometry y="100" width="140" height="30" as="geometry" />
        </mxCell>
        <mxCell id="-hERmXz7YFjnkPKjClpD-40" value="순이익" style="text;strokeColor=none;fillColor=none;align=left;verticalAlign=middle;spacingLeft=4;spacingRight=4;overflow=hidden;points=[[0,0.5],[1,0.5]];portConstraint=eastwest;rotatable=0;whiteSpace=wrap;html=1;" parent="-hERmXz7YFjnkPKjClpD-36" vertex="1">
          <mxGeometry y="130" width="140" height="30" as="geometry" />
        </mxCell>
        <mxCell id="-hERmXz7YFjnkPKjClpD-42" style="edgeStyle=orthogonalEdgeStyle;rounded=0;orthogonalLoop=1;jettySize=auto;html=1;entryX=0;entryY=0.5;entryDx=0;entryDy=0;endArrow=ERone;endFill=0;startArrow=ERoneToMany;startFill=0;" parent="1" source="-hERmXz7YFjnkPKjClpD-7" target="-hERmXz7YFjnkPKjClpD-37" edge="1">
          <mxGeometry relative="1" as="geometry" />
        </mxCell>
        <mxCell id="-hERmXz7YFjnkPKjClpD-43" value="마진(커피)" style="swimlane;fontStyle=0;childLayout=stackLayout;horizontal=1;startSize=40;horizontalStack=0;resizeParent=1;resizeParentMax=0;resizeLast=0;collapsible=1;marginBottom=0;whiteSpace=wrap;html=1;" parent="1" vertex="1">
          <mxGeometry x="570" y="720" width="140" height="220" as="geometry" />
        </mxCell>
        <mxCell id="-hERmXz7YFjnkPKjClpD-44" value="상품명" style="text;strokeColor=none;fillColor=none;align=left;verticalAlign=middle;spacingLeft=4;spacingRight=4;overflow=hidden;points=[[0,0.5],[1,0.5]];portConstraint=eastwest;rotatable=0;whiteSpace=wrap;html=1;" parent="-hERmXz7YFjnkPKjClpD-43" vertex="1">
          <mxGeometry y="40" width="140" height="30" as="geometry" />
        </mxCell>
        <mxCell id="-hERmXz7YFjnkPKjClpD-45" value="재로명(수량)" style="text;strokeColor=none;fillColor=none;align=left;verticalAlign=middle;spacingLeft=4;spacingRight=4;overflow=hidden;points=[[0,0.5],[1,0.5]];portConstraint=eastwest;rotatable=0;whiteSpace=wrap;html=1;" parent="-hERmXz7YFjnkPKjClpD-43" vertex="1">
          <mxGeometry y="70" width="140" height="30" as="geometry" />
        </mxCell>
        <mxCell id="-hERmXz7YFjnkPKjClpD-46" value="재로명" style="text;strokeColor=none;fillColor=none;align=left;verticalAlign=middle;spacingLeft=4;spacingRight=4;overflow=hidden;points=[[0,0.5],[1,0.5]];portConstraint=eastwest;rotatable=0;whiteSpace=wrap;html=1;" parent="-hERmXz7YFjnkPKjClpD-43" vertex="1">
          <mxGeometry y="100" width="140" height="30" as="geometry" />
        </mxCell>
        <mxCell id="-hERmXz7YFjnkPKjClpD-54" value="가격" style="text;strokeColor=none;fillColor=none;align=left;verticalAlign=middle;spacingLeft=4;spacingRight=4;overflow=hidden;points=[[0,0.5],[1,0.5]];portConstraint=eastwest;rotatable=0;whiteSpace=wrap;html=1;" parent="-hERmXz7YFjnkPKjClpD-43" vertex="1">
          <mxGeometry y="130" width="140" height="30" as="geometry" />
        </mxCell>
        <mxCell id="-hERmXz7YFjnkPKjClpD-53" value="원가" style="text;strokeColor=none;fillColor=none;align=left;verticalAlign=middle;spacingLeft=4;spacingRight=4;overflow=hidden;points=[[0,0.5],[1,0.5]];portConstraint=eastwest;rotatable=0;whiteSpace=wrap;html=1;" parent="-hERmXz7YFjnkPKjClpD-43" vertex="1">
          <mxGeometry y="160" width="140" height="30" as="geometry" />
        </mxCell>
        <mxCell id="-hERmXz7YFjnkPKjClpD-47" value="마진" style="text;strokeColor=none;fillColor=none;align=left;verticalAlign=middle;spacingLeft=4;spacingRight=4;overflow=hidden;points=[[0,0.5],[1,0.5]];portConstraint=eastwest;rotatable=0;whiteSpace=wrap;html=1;" parent="-hERmXz7YFjnkPKjClpD-43" vertex="1">
          <mxGeometry y="190" width="140" height="30" as="geometry" />
        </mxCell>
        <mxCell id="-hERmXz7YFjnkPKjClpD-48" value="마진(디저트)" style="swimlane;fontStyle=0;childLayout=stackLayout;horizontal=1;startSize=40;horizontalStack=0;resizeParent=1;resizeParentMax=0;resizeLast=0;collapsible=1;marginBottom=0;whiteSpace=wrap;html=1;" parent="1" vertex="1">
          <mxGeometry x="570" y="960" width="140" height="220" as="geometry" />
        </mxCell>
        <mxCell id="-hERmXz7YFjnkPKjClpD-49" value="상품명" style="text;strokeColor=none;fillColor=none;align=left;verticalAlign=middle;spacingLeft=4;spacingRight=4;overflow=hidden;points=[[0,0.5],[1,0.5]];portConstraint=eastwest;rotatable=0;whiteSpace=wrap;html=1;" parent="-hERmXz7YFjnkPKjClpD-48" vertex="1">
          <mxGeometry y="40" width="140" height="30" as="geometry" />
        </mxCell>
        <mxCell id="-hERmXz7YFjnkPKjClpD-50" value="재료명" style="text;strokeColor=none;fillColor=none;align=left;verticalAlign=middle;spacingLeft=4;spacingRight=4;overflow=hidden;points=[[0,0.5],[1,0.5]];portConstraint=eastwest;rotatable=0;whiteSpace=wrap;html=1;" parent="-hERmXz7YFjnkPKjClpD-48" vertex="1">
          <mxGeometry y="70" width="140" height="30" as="geometry" />
        </mxCell>
        <mxCell id="-hERmXz7YFjnkPKjClpD-51" value="재료명" style="text;strokeColor=none;fillColor=none;align=left;verticalAlign=middle;spacingLeft=4;spacingRight=4;overflow=hidden;points=[[0,0.5],[1,0.5]];portConstraint=eastwest;rotatable=0;whiteSpace=wrap;html=1;" parent="-hERmXz7YFjnkPKjClpD-48" vertex="1">
          <mxGeometry y="100" width="140" height="30" as="geometry" />
        </mxCell>
        <mxCell id="-hERmXz7YFjnkPKjClpD-56" value="가격&lt;span style=&quot;white-space: pre;&quot;&gt;&#x9;&lt;/span&gt;" style="text;strokeColor=none;fillColor=none;align=left;verticalAlign=middle;spacingLeft=4;spacingRight=4;overflow=hidden;points=[[0,0.5],[1,0.5]];portConstraint=eastwest;rotatable=0;whiteSpace=wrap;html=1;" parent="-hERmXz7YFjnkPKjClpD-48" vertex="1">
          <mxGeometry y="130" width="140" height="30" as="geometry" />
        </mxCell>
        <mxCell id="-hERmXz7YFjnkPKjClpD-55" value="원가" style="text;strokeColor=none;fillColor=none;align=left;verticalAlign=middle;spacingLeft=4;spacingRight=4;overflow=hidden;points=[[0,0.5],[1,0.5]];portConstraint=eastwest;rotatable=0;whiteSpace=wrap;html=1;" parent="-hERmXz7YFjnkPKjClpD-48" vertex="1">
          <mxGeometry y="160" width="140" height="30" as="geometry" />
        </mxCell>
        <mxCell id="-hERmXz7YFjnkPKjClpD-52" value="마진" style="text;strokeColor=none;fillColor=none;align=left;verticalAlign=middle;spacingLeft=4;spacingRight=4;overflow=hidden;points=[[0,0.5],[1,0.5]];portConstraint=eastwest;rotatable=0;whiteSpace=wrap;html=1;" parent="-hERmXz7YFjnkPKjClpD-48" vertex="1">
          <mxGeometry y="190" width="140" height="30" as="geometry" />
        </mxCell>
        <mxCell id="-hERmXz7YFjnkPKjClpD-58" value="재고" style="swimlane;fontStyle=0;childLayout=stackLayout;horizontal=1;startSize=40;horizontalStack=0;resizeParent=1;resizeParentMax=0;resizeLast=0;collapsible=1;marginBottom=0;whiteSpace=wrap;html=1;" parent="1" vertex="1">
          <mxGeometry x="360" y="750" width="140" height="160" as="geometry" />
        </mxCell>
        <mxCell id="-hERmXz7YFjnkPKjClpD-59" value="재고명(PK)" style="text;strokeColor=none;fillColor=none;align=left;verticalAlign=middle;spacingLeft=4;spacingRight=4;overflow=hidden;points=[[0,0.5],[1,0.5]];portConstraint=eastwest;rotatable=0;whiteSpace=wrap;html=1;" parent="-hERmXz7YFjnkPKjClpD-58" vertex="1">
          <mxGeometry y="40" width="140" height="30" as="geometry" />
        </mxCell>
        <mxCell id="-hERmXz7YFjnkPKjClpD-82" value="수량" style="text;strokeColor=none;fillColor=none;align=left;verticalAlign=middle;spacingLeft=4;spacingRight=4;overflow=hidden;points=[[0,0.5],[1,0.5]];portConstraint=eastwest;rotatable=0;whiteSpace=wrap;html=1;" parent="-hERmXz7YFjnkPKjClpD-58" vertex="1">
          <mxGeometry y="70" width="140" height="30" as="geometry" />
        </mxCell>
        <mxCell id="-hERmXz7YFjnkPKjClpD-60" value="단위" style="text;strokeColor=none;fillColor=none;align=left;verticalAlign=middle;spacingLeft=4;spacingRight=4;overflow=hidden;points=[[0,0.5],[1,0.5]];portConstraint=eastwest;rotatable=0;whiteSpace=wrap;html=1;" parent="-hERmXz7YFjnkPKjClpD-58" vertex="1">
          <mxGeometry y="100" width="140" height="30" as="geometry" />
        </mxCell>
        <mxCell id="-hERmXz7YFjnkPKjClpD-61" value="단위당 금액" style="text;strokeColor=none;fillColor=none;align=left;verticalAlign=middle;spacingLeft=4;spacingRight=4;overflow=hidden;points=[[0,0.5],[1,0.5]];portConstraint=eastwest;rotatable=0;whiteSpace=wrap;html=1;" parent="-hERmXz7YFjnkPKjClpD-58" vertex="1">
          <mxGeometry y="130" width="140" height="30" as="geometry" />
        </mxCell>
        <mxCell id="-hERmXz7YFjnkPKjClpD-63" style="edgeStyle=orthogonalEdgeStyle;rounded=0;orthogonalLoop=1;jettySize=auto;html=1;entryX=0;entryY=0.5;entryDx=0;entryDy=0;endArrow=ERzeroToOne;endFill=0;startArrow=ERone;startFill=0;" parent="1" source="-hERmXz7YFjnkPKjClpD-59" target="-hERmXz7YFjnkPKjClpD-45" edge="1">
          <mxGeometry relative="1" as="geometry" />
        </mxCell>
        <mxCell id="-hERmXz7YFjnkPKjClpD-65" value="매출" style="swimlane;fontStyle=0;childLayout=stackLayout;horizontal=1;startSize=40;horizontalStack=0;resizeParent=1;resizeParentMax=0;resizeLast=0;collapsible=1;marginBottom=0;whiteSpace=wrap;html=1;" parent="1" vertex="1">
          <mxGeometry x="870" y="440" width="140" height="250" as="geometry" />
        </mxCell>
        <mxCell id="-hERmXz7YFjnkPKjClpD-66" value="날짜" style="text;strokeColor=none;fillColor=none;align=left;verticalAlign=middle;spacingLeft=4;spacingRight=4;overflow=hidden;points=[[0,0.5],[1,0.5]];portConstraint=eastwest;rotatable=0;whiteSpace=wrap;html=1;" parent="-hERmXz7YFjnkPKjClpD-65" vertex="1">
          <mxGeometry y="40" width="140" height="30" as="geometry" />
        </mxCell>
        <mxCell id="-hERmXz7YFjnkPKjClpD-67" value="판매금액" style="text;strokeColor=none;fillColor=none;align=left;verticalAlign=middle;spacingLeft=4;spacingRight=4;overflow=hidden;points=[[0,0.5],[1,0.5]];portConstraint=eastwest;rotatable=0;whiteSpace=wrap;html=1;" parent="-hERmXz7YFjnkPKjClpD-65" vertex="1">
          <mxGeometry y="70" width="140" height="30" as="geometry" />
        </mxCell>
        <mxCell id="-hERmXz7YFjnkPKjClpD-68" value="마진" style="text;strokeColor=none;fillColor=none;align=left;verticalAlign=middle;spacingLeft=4;spacingRight=4;overflow=hidden;points=[[0,0.5],[1,0.5]];portConstraint=eastwest;rotatable=0;whiteSpace=wrap;html=1;" parent="-hERmXz7YFjnkPKjClpD-65" vertex="1">
          <mxGeometry y="100" width="140" height="30" as="geometry" />
        </mxCell>
        <mxCell id="-hERmXz7YFjnkPKjClpD-69" value="매입 비용" style="text;strokeColor=none;fillColor=none;align=left;verticalAlign=middle;spacingLeft=4;spacingRight=4;overflow=hidden;points=[[0,0.5],[1,0.5]];portConstraint=eastwest;rotatable=0;whiteSpace=wrap;html=1;" parent="-hERmXz7YFjnkPKjClpD-65" vertex="1">
          <mxGeometry y="130" width="140" height="30" as="geometry" />
        </mxCell>
        <mxCell id="-hERmXz7YFjnkPKjClpD-70" value="고정비" style="text;strokeColor=none;fillColor=none;align=left;verticalAlign=middle;spacingLeft=4;spacingRight=4;overflow=hidden;points=[[0,0.5],[1,0.5]];portConstraint=eastwest;rotatable=0;whiteSpace=wrap;html=1;" parent="-hERmXz7YFjnkPKjClpD-65" vertex="1">
          <mxGeometry y="160" width="140" height="30" as="geometry" />
        </mxCell>
        <mxCell id="JBxCybOLrCeZO6J4CnLg-2" value="총지출" style="text;strokeColor=none;fillColor=none;align=left;verticalAlign=middle;spacingLeft=4;spacingRight=4;overflow=hidden;points=[[0,0.5],[1,0.5]];portConstraint=eastwest;rotatable=0;whiteSpace=wrap;html=1;" vertex="1" parent="-hERmXz7YFjnkPKjClpD-65">
          <mxGeometry y="190" width="140" height="30" as="geometry" />
        </mxCell>
        <mxCell id="-hERmXz7YFjnkPKjClpD-71" value="순이익" style="text;strokeColor=none;fillColor=none;align=left;verticalAlign=middle;spacingLeft=4;spacingRight=4;overflow=hidden;points=[[0,0.5],[1,0.5]];portConstraint=eastwest;rotatable=0;whiteSpace=wrap;html=1;" parent="-hERmXz7YFjnkPKjClpD-65" vertex="1">
          <mxGeometry y="220" width="140" height="30" as="geometry" />
        </mxCell>
        <mxCell id="-hERmXz7YFjnkPKjClpD-72" style="edgeStyle=orthogonalEdgeStyle;rounded=0;orthogonalLoop=1;jettySize=auto;html=1;entryX=0;entryY=0.5;entryDx=0;entryDy=0;" parent="1" source="-hERmXz7YFjnkPKjClpD-9" target="-hERmXz7YFjnkPKjClpD-67" edge="1">
          <mxGeometry relative="1" as="geometry">
            <Array as="points">
              <mxPoint x="530" y="395" />
              <mxPoint x="530" y="525" />
            </Array>
          </mxGeometry>
        </mxCell>
        <mxCell id="-hERmXz7YFjnkPKjClpD-74" style="edgeStyle=orthogonalEdgeStyle;rounded=0;orthogonalLoop=1;jettySize=auto;html=1;exitX=1;exitY=0.5;exitDx=0;exitDy=0;entryX=0;entryY=0.5;entryDx=0;entryDy=0;" parent="1" source="-hERmXz7YFjnkPKjClpD-47" target="-hERmXz7YFjnkPKjClpD-68" edge="1">
          <mxGeometry relative="1" as="geometry" />
        </mxCell>
        <mxCell id="-hERmXz7YFjnkPKjClpD-75" style="edgeStyle=orthogonalEdgeStyle;rounded=0;orthogonalLoop=1;jettySize=auto;html=1;entryX=1;entryY=0.5;entryDx=0;entryDy=0;" parent="1" source="-hERmXz7YFjnkPKjClpD-52" target="-hERmXz7YFjnkPKjClpD-68" edge="1">
          <mxGeometry relative="1" as="geometry">
            <Array as="points">
              <mxPoint x="1100" y="1165" />
              <mxPoint x="1100" y="555" />
            </Array>
          </mxGeometry>
        </mxCell>
        <mxCell id="-hERmXz7YFjnkPKjClpD-83" value="입출고 목록" style="swimlane;fontStyle=0;childLayout=stackLayout;horizontal=1;startSize=40;horizontalStack=0;resizeParent=1;resizeParentMax=0;resizeLast=0;collapsible=1;marginBottom=0;whiteSpace=wrap;html=1;" parent="1" vertex="1">
          <mxGeometry x="120" y="750" width="140" height="160" as="geometry" />
        </mxCell>
        <mxCell id="-hERmXz7YFjnkPKjClpD-84" value="재고명(FK)" style="text;strokeColor=none;fillColor=none;align=left;verticalAlign=middle;spacingLeft=4;spacingRight=4;overflow=hidden;points=[[0,0.5],[1,0.5]];portConstraint=eastwest;rotatable=0;whiteSpace=wrap;html=1;" parent="-hERmXz7YFjnkPKjClpD-83" vertex="1">
          <mxGeometry y="40" width="140" height="30" as="geometry" />
        </mxCell>
        <mxCell id="-hERmXz7YFjnkPKjClpD-85" value="수량" style="text;strokeColor=none;fillColor=none;align=left;verticalAlign=middle;spacingLeft=4;spacingRight=4;overflow=hidden;points=[[0,0.5],[1,0.5]];portConstraint=eastwest;rotatable=0;whiteSpace=wrap;html=1;" parent="-hERmXz7YFjnkPKjClpD-83" vertex="1">
          <mxGeometry y="70" width="140" height="30" as="geometry" />
        </mxCell>
        <mxCell id="-hERmXz7YFjnkPKjClpD-86" value="분류(입, 출고)" style="text;strokeColor=none;fillColor=none;align=left;verticalAlign=middle;spacingLeft=4;spacingRight=4;overflow=hidden;points=[[0,0.5],[1,0.5]];portConstraint=eastwest;rotatable=0;whiteSpace=wrap;html=1;" parent="-hERmXz7YFjnkPKjClpD-83" vertex="1">
          <mxGeometry y="100" width="140" height="30" as="geometry" />
        </mxCell>
        <mxCell id="-hERmXz7YFjnkPKjClpD-87" value="날짜" style="text;strokeColor=none;fillColor=none;align=left;verticalAlign=middle;spacingLeft=4;spacingRight=4;overflow=hidden;points=[[0,0.5],[1,0.5]];portConstraint=eastwest;rotatable=0;whiteSpace=wrap;html=1;" parent="-hERmXz7YFjnkPKjClpD-83" vertex="1">
          <mxGeometry y="130" width="140" height="30" as="geometry" />
        </mxCell>
        <mxCell id="-hERmXz7YFjnkPKjClpD-89" value="매입" style="swimlane;fontStyle=0;childLayout=stackLayout;horizontal=1;startSize=40;horizontalStack=0;resizeParent=1;resizeParentMax=0;resizeLast=0;collapsible=1;marginBottom=0;whiteSpace=wrap;html=1;" parent="1" vertex="1">
          <mxGeometry x="120" y="950" width="140" height="190" as="geometry" />
        </mxCell>
        <mxCell id="-hERmXz7YFjnkPKjClpD-90" value="재고명(FK)" style="text;strokeColor=none;fillColor=none;align=left;verticalAlign=middle;spacingLeft=4;spacingRight=4;overflow=hidden;points=[[0,0.5],[1,0.5]];portConstraint=eastwest;rotatable=0;whiteSpace=wrap;html=1;" parent="-hERmXz7YFjnkPKjClpD-89" vertex="1">
          <mxGeometry y="40" width="140" height="30" as="geometry" />
        </mxCell>
        <mxCell id="-hERmXz7YFjnkPKjClpD-91" value="수량" style="text;strokeColor=none;fillColor=none;align=left;verticalAlign=middle;spacingLeft=4;spacingRight=4;overflow=hidden;points=[[0,0.5],[1,0.5]];portConstraint=eastwest;rotatable=0;whiteSpace=wrap;html=1;" parent="-hERmXz7YFjnkPKjClpD-89" vertex="1">
          <mxGeometry y="70" width="140" height="30" as="geometry" />
        </mxCell>
        <mxCell id="-hERmXz7YFjnkPKjClpD-92" value="분류(입, 출고)" style="text;strokeColor=none;fillColor=none;align=left;verticalAlign=middle;spacingLeft=4;spacingRight=4;overflow=hidden;points=[[0,0.5],[1,0.5]];portConstraint=eastwest;rotatable=0;whiteSpace=wrap;html=1;" parent="-hERmXz7YFjnkPKjClpD-89" vertex="1">
          <mxGeometry y="100" width="140" height="30" as="geometry" />
        </mxCell>
        <mxCell id="-hERmXz7YFjnkPKjClpD-93" value="날짜" style="text;strokeColor=none;fillColor=none;align=left;verticalAlign=middle;spacingLeft=4;spacingRight=4;overflow=hidden;points=[[0,0.5],[1,0.5]];portConstraint=eastwest;rotatable=0;whiteSpace=wrap;html=1;" parent="-hERmXz7YFjnkPKjClpD-89" vertex="1">
          <mxGeometry y="130" width="140" height="30" as="geometry" />
        </mxCell>
        <mxCell id="-hERmXz7YFjnkPKjClpD-96" value="가격" style="text;strokeColor=none;fillColor=none;align=left;verticalAlign=middle;spacingLeft=4;spacingRight=4;overflow=hidden;points=[[0,0.5],[1,0.5]];portConstraint=eastwest;rotatable=0;whiteSpace=wrap;html=1;" parent="-hERmXz7YFjnkPKjClpD-89" vertex="1">
          <mxGeometry y="160" width="140" height="30" as="geometry" />
        </mxCell>
        <mxCell id="-hERmXz7YFjnkPKjClpD-95" style="edgeStyle=orthogonalEdgeStyle;rounded=0;orthogonalLoop=1;jettySize=auto;html=1;entryX=0;entryY=0.5;entryDx=0;entryDy=0;endArrow=ERone;endFill=0;startArrow=ERone;startFill=0;" parent="1" source="-hERmXz7YFjnkPKjClpD-90" target="-hERmXz7YFjnkPKjClpD-84" edge="1">
          <mxGeometry relative="1" as="geometry" />
        </mxCell>
        <mxCell id="-hERmXz7YFjnkPKjClpD-98" style="edgeStyle=orthogonalEdgeStyle;rounded=0;orthogonalLoop=1;jettySize=auto;html=1;exitX=1;exitY=0.5;exitDx=0;exitDy=0;entryX=0;entryY=0.5;entryDx=0;entryDy=0;endArrow=ERoneToMany;endFill=0;startArrow=ERone;startFill=0;" parent="1" source="-hERmXz7YFjnkPKjClpD-17" target="-hERmXz7YFjnkPKjClpD-8" edge="1">
          <mxGeometry relative="1" as="geometry" />
        </mxCell>
        <mxCell id="-hERmXz7YFjnkPKjClpD-99" style="edgeStyle=orthogonalEdgeStyle;rounded=0;orthogonalLoop=1;jettySize=auto;html=1;exitX=0;exitY=0.5;exitDx=0;exitDy=0;entryX=0;entryY=0.5;entryDx=0;entryDy=0;" parent="1" source="-hERmXz7YFjnkPKjClpD-18" target="-hERmXz7YFjnkPKjClpD-24" edge="1">
          <mxGeometry relative="1" as="geometry" />
        </mxCell>
        <mxCell id="-hERmXz7YFjnkPKjClpD-100" style="edgeStyle=orthogonalEdgeStyle;rounded=0;orthogonalLoop=1;jettySize=auto;html=1;exitX=1;exitY=0.5;exitDx=0;exitDy=0;entryX=1;entryY=0.5;entryDx=0;entryDy=0;" parent="1" source="-hERmXz7YFjnkPKjClpD-29" target="-hERmXz7YFjnkPKjClpD-33" edge="1">
          <mxGeometry relative="1" as="geometry" />
        </mxCell>
        <mxCell id="-hERmXz7YFjnkPKjClpD-101" style="edgeStyle=orthogonalEdgeStyle;rounded=0;orthogonalLoop=1;jettySize=auto;html=1;exitX=1;exitY=0.5;exitDx=0;exitDy=0;entryX=0;entryY=0.5;entryDx=0;entryDy=0;endArrow=ERone;endFill=0;startArrow=ERzeroToMany;startFill=0;" parent="1" source="-hERmXz7YFjnkPKjClpD-90" target="-hERmXz7YFjnkPKjClpD-59" edge="1">
          <mxGeometry relative="1" as="geometry" />
        </mxCell>
        <mxCell id="-hERmXz7YFjnkPKjClpD-102" style="edgeStyle=orthogonalEdgeStyle;rounded=0;orthogonalLoop=1;jettySize=auto;html=1;exitX=0;exitY=0.5;exitDx=0;exitDy=0;entryX=0;entryY=0.5;entryDx=0;entryDy=0;endArrow=ERone;endFill=0;startArrow=ERzeroToMany;startFill=0;" parent="1" source="-hERmXz7YFjnkPKjClpD-50" target="-hERmXz7YFjnkPKjClpD-82" edge="1">
          <mxGeometry relative="1" as="geometry" />
        </mxCell>
      </root>
    </mxGraphModel>
  </diagram>
</mxfile>
